<?xml version="1.0" encoding="utf-8"?>
<!-- Generator: Adobe Illustrator 24.0.0, SVG Export Plug-In . SVG Version: 6.00 Build 0)  -->
<svg version="1.1" id="Layer_1" xmlns="http://www.w3.org/2000/svg" xmlns:xlink="http://www.w3.org/1999/xlink" x="0px" y="0px"
	 viewBox="0 0 256 256" enable-background="new 0 0 256 256" xml:space="preserve">
<g>
	<g>
		<circle fill="#F46275" cx="128" cy="122.514" r="63.591"/>
		<g>
			<path fill="#F43075" d="M79.075,122.513c0-32.639,24.594-59.519,56.258-63.157c-2.408-0.277-4.852-0.434-7.333-0.434
				c-35.12,0-63.591,28.471-63.591,63.591c0,35.121,28.471,63.591,63.591,63.591c2.482,0,4.926-0.157,7.333-0.434
				C103.669,182.033,79.075,155.152,79.075,122.513z"/>
		</g>
		<g>
			<circle fill="#F8AF23" cx="157.84" cy="119.512" r="11.302"/>
			<polygon fill="#CECECE" points="147.274,146.077 120.839,132.205 120.839,106.808 147.274,92.936 			"/>
			<rect x="147.274" y="92.936" fill="#63BCE7" width="10.566" height="53.142"/>
			<rect x="98.606" y="106.808" fill="#F8AF23" width="22.233" height="25.408"/>
			<rect x="86.858" y="113.152" fill="#63BCE7" width="11.749" height="12.709"/>
			<rect x="104.819" y="132.216" fill="#CECECE" width="9.807" height="19.876"/>
		</g>
	</g>
	<g>
		<path fill="#3F3679" d="M120.49,133.716l26.088,13.689v-0.008c0.209,0.111,0.444,0.179,0.697,0.179h10.566
			c0.828,0,1.5-0.671,1.5-1.5v-13.859c6.353-0.746,11.302-6.156,11.302-12.706s-4.948-11.96-11.302-12.706v-13.87
			c0-0.829-0.672-1.5-1.5-1.5h-10.566c-0.253,0-0.488,0.069-0.697,0.179v-0.008l-26.108,13.701H98.606c-0.828,0-1.5,0.671-1.5,1.5
			v4.844H86.857c-0.828,0-1.5,0.671-1.5,1.5v12.709c0,0.829,0.672,1.5,1.5,1.5h10.249v4.854c0,0.829,0.672,1.5,1.5,1.5h4.713v18.375
			c0,0.829,0.672,1.5,1.5,1.5h9.807c0.828,0,1.5-0.671,1.5-1.5v-18.375H120.49z M167.643,119.512c0,4.893-3.609,8.949-8.302,9.675
			v-19.35C164.034,110.563,167.643,114.618,167.643,119.512z M148.774,94.436h7.566v50.142h-7.566V94.436z M145.774,143.596
			l-23.436-12.298v-23.583l23.436-12.298V143.596z M88.357,124.361v-9.709h8.749v9.709H88.357z M100.106,125.861v-12.709v-4.844
			h19.232v22.408h-4.713h-9.807h-4.713V125.861z M113.126,150.591h-6.807v-16.875h6.807V150.591z"/>
		<path fill="#3F3679" d="M27.323,241.811H9.32c-0.828,0-1.5,0.671-1.5,1.5s0.672,1.5,1.5,1.5h18.003c0.828,0,1.5-0.671,1.5-1.5
			S28.151,241.811,27.323,241.811z"/>
		<path fill="#3F3679" d="M246.68,241.811h-18.003c-0.828,0-1.5,0.671-1.5,1.5s0.672,1.5,1.5,1.5h18.003c0.828,0,1.5-0.671,1.5-1.5
			S247.508,241.811,246.68,241.811z"/>
		<path fill="#3F3679" d="M218.479,241.811H37.521c-0.828,0-1.5,0.671-1.5,1.5s0.672,1.5,1.5,1.5h180.959c0.828,0,1.5-0.671,1.5-1.5
			S219.308,241.811,218.479,241.811z"/>
		<path fill="#3F3679" d="M9.32,233.838H246.68c0.828,0,1.5-0.671,1.5-1.5s-0.672-1.5-1.5-1.5H131.621l7.441-7.441
			c0.586-0.585,0.586-1.536,0-2.121c-0.586-0.586-1.535-0.586-2.121,0l-7.441,7.441v-41.15c16.814-0.383,32.066-7.167,43.419-18.013
			l29.118,29.117h-10.524c-0.828,0-1.5,0.671-1.5,1.5s0.672,1.5,1.5,1.5h14.146c0.828,0,1.5-0.671,1.5-1.5v-14.145
			c0-0.829-0.672-1.5-1.5-1.5s-1.5,0.671-1.5,1.5v10.524l-29.118-29.117c10.846-11.354,17.63-26.605,18.013-43.419h41.15
			l-7.441,7.441c-0.586,0.586-0.586,1.536,0,2.121c0.293,0.293,0.677,0.439,1.061,0.439s0.768-0.146,1.061-0.439l10.001-10.002
			c0.586-0.586,0.586-1.535,0-2.121l-10.001-10.002c-0.586-0.586-1.535-0.586-2.121,0c-0.586,0.585-0.586,1.535,0,2.121l7.441,7.441
			h-41.15c-0.383-16.814-7.167-32.066-18.013-43.419l29.118-29.118V59c0,0.829,0.672,1.5,1.5,1.5s1.5-0.671,1.5-1.5V44.856
			c0-0.829-0.672-1.5-1.5-1.5h-14.146c-0.828,0-1.5,0.671-1.5,1.5s0.672,1.5,1.5,1.5h10.523L172.92,75.473
			c-11.354-10.846-26.606-17.63-43.42-18.013V16.31l7.441,7.441c0.293,0.293,0.677,0.439,1.061,0.439s0.768-0.146,1.061-0.439
			c0.586-0.585,0.586-1.536,0-2.121l-10.002-10.002c-0.586-0.586-1.535-0.586-2.121,0L116.938,21.63
			c-0.586,0.585-0.586,1.536,0,2.121c0.586,0.586,1.535,0.586,2.121,0l7.441-7.441v41.15c-16.814,0.383-32.065,7.166-43.419,18.013
			L53.963,46.356h10.524c0.828,0,1.5-0.671,1.5-1.5s-0.672-1.5-1.5-1.5H50.342c-0.828,0-1.5,0.671-1.5,1.5V59
			c0,0.829,0.672,1.5,1.5,1.5s1.5-0.671,1.5-1.5V48.477L80.96,77.594c-10.847,11.354-17.63,26.605-18.014,43.42h-41.15l7.441-7.441
			c0.586-0.586,0.586-1.536,0-2.121c-0.586-0.586-1.535-0.586-2.121,0l-10.001,10.002c-0.586,0.586-0.586,1.535,0,2.121
			l10.001,10.002c0.293,0.293,0.677,0.439,1.061,0.439s0.768-0.146,1.061-0.439c0.586-0.585,0.586-1.535,0-2.121l-7.441-7.441h41.15
			c0.383,16.814,7.167,32.065,18.013,43.419l-29.118,29.118v-10.524c0-0.829-0.672-1.5-1.5-1.5s-1.5,0.671-1.5,1.5v14.145
			c0,0.829,0.672,1.5,1.5,1.5h14.146c0.828,0,1.5-0.671,1.5-1.5s-0.672-1.5-1.5-1.5H53.963l29.117-29.117
			c11.354,10.846,26.606,17.63,43.42,18.013v41.15l-7.441-7.441c-0.586-0.586-1.535-0.586-2.121,0c-0.586,0.585-0.586,1.536,0,2.121
			l7.441,7.441H9.32c-0.828,0-1.5,0.671-1.5,1.5S8.492,233.838,9.32,233.838z M65.908,122.514c0-34.237,27.854-62.091,62.092-62.091
			s62.092,27.854,62.092,62.091S162.237,184.605,128,184.605S65.908,156.751,65.908,122.514z"/>
	</g>
</g>
</svg>
